<mxfile host="app.diagrams.net" modified="2024-04-13T19:44:10.228Z" agent="Mozilla/5.0 (Windows NT 10.0; Win64; x64) AppleWebKit/537.36 (KHTML, like Gecko) Chrome/123.0.0.0 Safari/537.36" etag="_kTQLdJNLkZMhSsA0Scz" version="24.2.3" type="github">
  <diagram name="Página-1" id="B3JocaOPvU7tTn9FGKZa">
    <mxGraphModel dx="954" dy="600" grid="1" gridSize="10" guides="1" tooltips="1" connect="1" arrows="1" fold="1" page="1" pageScale="1" pageWidth="827" pageHeight="1169" math="0" shadow="0">
      <root>
        <mxCell id="0" />
        <mxCell id="1" parent="0" />
        <mxCell id="aqBvP_lB-qDoiWEf8BNo-25" style="edgeStyle=orthogonalEdgeStyle;rounded=0;orthogonalLoop=1;jettySize=auto;html=1;" edge="1" parent="1" source="aqBvP_lB-qDoiWEf8BNo-1" target="aqBvP_lB-qDoiWEf8BNo-3">
          <mxGeometry relative="1" as="geometry">
            <Array as="points">
              <mxPoint x="90" y="320" />
            </Array>
          </mxGeometry>
        </mxCell>
        <mxCell id="aqBvP_lB-qDoiWEf8BNo-1" value="" style="sketch=0;points=[[0.015,0.015,0],[0.985,0.015,0],[0.985,0.985,0],[0.015,0.985,0],[0.25,0,0],[0.5,0,0],[0.75,0,0],[1,0.25,0],[1,0.5,0],[1,0.75,0],[0.75,1,0],[0.5,1,0],[0.25,1,0],[0,0.75,0],[0,0.5,0],[0,0.25,0]];verticalLabelPosition=bottom;html=1;verticalAlign=top;aspect=fixed;align=center;pointerEvents=1;shape=mxgraph.cisco19.cell_phone;fillColor=#005073;strokeColor=none;" vertex="1" parent="1">
          <mxGeometry x="80" y="160" width="25" height="50" as="geometry" />
        </mxCell>
        <mxCell id="aqBvP_lB-qDoiWEf8BNo-2" value="" style="rounded=0;whiteSpace=wrap;html=1;fillColor=none;" vertex="1" parent="1">
          <mxGeometry x="184" y="55" width="560" height="505" as="geometry" />
        </mxCell>
        <mxCell id="aqBvP_lB-qDoiWEf8BNo-16" style="edgeStyle=orthogonalEdgeStyle;rounded=0;orthogonalLoop=1;jettySize=auto;html=1;" edge="1" parent="1" source="aqBvP_lB-qDoiWEf8BNo-3" target="aqBvP_lB-qDoiWEf8BNo-10">
          <mxGeometry relative="1" as="geometry">
            <Array as="points">
              <mxPoint x="310" y="320" />
              <mxPoint x="310" y="320" />
            </Array>
          </mxGeometry>
        </mxCell>
        <mxCell id="aqBvP_lB-qDoiWEf8BNo-3" value="API REST exposta para requests de análise de documentos (Amazon API Gateway)" style="sketch=0;outlineConnect=0;strokeColor=#9673a6;fillColor=#e1d5e7;dashed=0;verticalLabelPosition=middle;verticalAlign=bottom;align=center;html=1;whiteSpace=wrap;fontSize=10;fontStyle=1;spacing=3;shape=mxgraph.aws4.productIcon;prIcon=mxgraph.aws4.api_gateway;" vertex="1" parent="1">
          <mxGeometry x="200" y="240" width="70" height="160" as="geometry" />
        </mxCell>
        <mxCell id="aqBvP_lB-qDoiWEf8BNo-4" value="&lt;span style=&quot;color: rgb(0, 0, 0); font-family: Helvetica; font-size: 12px; font-style: normal; font-variant-ligatures: normal; font-variant-caps: normal; font-weight: 400; letter-spacing: normal; orphans: 2; text-align: center; text-indent: 0px; text-transform: none; widows: 2; word-spacing: 0px; -webkit-text-stroke-width: 0px; white-space: normal; background-color: rgb(251, 251, 251); text-decoration-thickness: initial; text-decoration-style: initial; text-decoration-color: initial; display: inline !important; float: none;&quot;&gt;VPC na AWS&lt;/span&gt;" style="text;html=1;align=center;verticalAlign=middle;whiteSpace=wrap;rounded=0;" vertex="1" parent="1">
          <mxGeometry x="184" y="30" width="80" height="25" as="geometry" />
        </mxCell>
        <mxCell id="aqBvP_lB-qDoiWEf8BNo-17" style="edgeStyle=orthogonalEdgeStyle;rounded=0;orthogonalLoop=1;jettySize=auto;html=1;" edge="1" parent="1" source="aqBvP_lB-qDoiWEf8BNo-10" target="aqBvP_lB-qDoiWEf8BNo-12">
          <mxGeometry relative="1" as="geometry">
            <Array as="points">
              <mxPoint x="430" y="320" />
              <mxPoint x="430" y="320" />
            </Array>
          </mxGeometry>
        </mxCell>
        <mxCell id="aqBvP_lB-qDoiWEf8BNo-10" value="&lt;font color=&quot;#000000&quot;&gt;Controlador de carga das requests (ELB)&lt;/font&gt;" style="sketch=0;outlineConnect=0;strokeColor=#9673a6;fillColor=#e1d5e7;dashed=0;verticalLabelPosition=middle;verticalAlign=bottom;align=center;html=1;whiteSpace=wrap;fontSize=10;fontStyle=1;spacing=3;shape=mxgraph.aws4.productIcon;prIcon=mxgraph.aws4.application_load_balancer;" vertex="1" parent="1">
          <mxGeometry x="320" y="240" width="100" height="150" as="geometry" />
        </mxCell>
        <mxCell id="aqBvP_lB-qDoiWEf8BNo-18" style="edgeStyle=orthogonalEdgeStyle;rounded=0;orthogonalLoop=1;jettySize=auto;html=1;" edge="1" parent="1" source="aqBvP_lB-qDoiWEf8BNo-12" target="aqBvP_lB-qDoiWEf8BNo-13">
          <mxGeometry relative="1" as="geometry" />
        </mxCell>
        <mxCell id="aqBvP_lB-qDoiWEf8BNo-21" style="edgeStyle=orthogonalEdgeStyle;rounded=0;orthogonalLoop=1;jettySize=auto;html=1;exitX=0.5;exitY=0;exitDx=0;exitDy=0;exitPerimeter=0;" edge="1" parent="1" source="aqBvP_lB-qDoiWEf8BNo-13" target="aqBvP_lB-qDoiWEf8BNo-19">
          <mxGeometry relative="1" as="geometry">
            <Array as="points">
              <mxPoint x="645" y="130" />
            </Array>
          </mxGeometry>
        </mxCell>
        <mxCell id="aqBvP_lB-qDoiWEf8BNo-12" value="Serviço para validação dos daods/documentos (ECS)" style="sketch=0;outlineConnect=0;strokeColor=#9673a6;fillColor=#e1d5e7;dashed=0;verticalLabelPosition=middle;verticalAlign=bottom;align=center;html=1;whiteSpace=wrap;fontSize=10;fontStyle=1;spacing=3;shape=mxgraph.aws4.productIcon;prIcon=mxgraph.aws4.ecs;" vertex="1" parent="1">
          <mxGeometry x="470" y="245" width="100" height="150" as="geometry" />
        </mxCell>
        <mxCell id="aqBvP_lB-qDoiWEf8BNo-15" style="edgeStyle=orthogonalEdgeStyle;rounded=0;orthogonalLoop=1;jettySize=auto;html=1;exitX=1;exitY=0.5;exitDx=0;exitDy=0;exitPerimeter=0;" edge="1" parent="1" source="aqBvP_lB-qDoiWEf8BNo-13" target="aqBvP_lB-qDoiWEf8BNo-14">
          <mxGeometry relative="1" as="geometry">
            <Array as="points">
              <mxPoint x="700" y="320" />
              <mxPoint x="700" y="500" />
            </Array>
          </mxGeometry>
        </mxCell>
        <mxCell id="aqBvP_lB-qDoiWEf8BNo-13" value="&lt;div style=&quot;&quot;&gt;&lt;span style=&quot;background-color: initial;&quot;&gt;Conexão do serviço&amp;nbsp;&lt;/span&gt;&lt;/div&gt;&lt;div style=&quot;&quot;&gt;&amp;nbsp;com banco de&amp;nbsp;&lt;/div&gt;&lt;div style=&quot;&quot;&gt;dados PostgreSQL&lt;/div&gt;" style="outlineConnect=0;dashed=0;verticalLabelPosition=bottom;verticalAlign=top;align=center;html=1;shape=mxgraph.aws3.vpc_nat_gateway;fillColor=#e1d5e7;strokeColor=#9673a6;fillStyle=solid;" vertex="1" parent="1">
          <mxGeometry x="620" y="296.5" width="50" height="47" as="geometry" />
        </mxCell>
        <mxCell id="aqBvP_lB-qDoiWEf8BNo-14" value="Amazon DynamoDB" style="sketch=0;outlineConnect=0;strokeColor=#9673a6;fillColor=#e1d5e7;dashed=0;verticalLabelPosition=middle;verticalAlign=bottom;align=center;html=1;whiteSpace=wrap;fontSize=10;fontStyle=1;spacing=3;shape=mxgraph.aws4.productIcon;prIcon=mxgraph.aws4.dynamodb;" vertex="1" parent="1">
          <mxGeometry x="424" y="440" width="80" height="110" as="geometry" />
        </mxCell>
        <mxCell id="aqBvP_lB-qDoiWEf8BNo-19" value="Notificação ao cliente da análise: push ou E-mail (SNS)" style="sketch=0;outlineConnect=0;strokeColor=#9673a6;fillColor=#e1d5e7;dashed=0;verticalLabelPosition=middle;verticalAlign=bottom;align=center;html=1;whiteSpace=wrap;fontSize=10;fontStyle=1;spacing=3;shape=mxgraph.aws4.productIcon;prIcon=mxgraph.aws4.sns;" vertex="1" parent="1">
          <mxGeometry x="400" y="60" width="90" height="140" as="geometry" />
        </mxCell>
        <mxCell id="aqBvP_lB-qDoiWEf8BNo-24" style="edgeStyle=orthogonalEdgeStyle;rounded=0;orthogonalLoop=1;jettySize=auto;html=1;" edge="1" parent="1" source="aqBvP_lB-qDoiWEf8BNo-22" target="aqBvP_lB-qDoiWEf8BNo-3">
          <mxGeometry relative="1" as="geometry">
            <Array as="points">
              <mxPoint x="90" y="320" />
            </Array>
          </mxGeometry>
        </mxCell>
        <mxCell id="aqBvP_lB-qDoiWEf8BNo-26" value="&lt;font style=&quot;font-size: 14px;&quot;&gt;HTTP&lt;/font&gt;" style="edgeLabel;html=1;align=center;verticalAlign=middle;resizable=0;points=[];" vertex="1" connectable="0" parent="aqBvP_lB-qDoiWEf8BNo-24">
          <mxGeometry x="0.2952" y="1" relative="1" as="geometry">
            <mxPoint as="offset" />
          </mxGeometry>
        </mxCell>
        <mxCell id="aqBvP_lB-qDoiWEf8BNo-22" value="" style="image;points=[];aspect=fixed;html=1;align=center;shadow=0;dashed=0;image=img/lib/allied_telesis/computer_and_terminals/Personal_Computer_with_Server.svg;imageBackground=#9673A6;imageBorder=none;" vertex="1" parent="1">
          <mxGeometry x="70" y="420" width="62.400000000000006" height="62.400000000000006" as="geometry" />
        </mxCell>
      </root>
    </mxGraphModel>
  </diagram>
</mxfile>
